<mxfile host="app.diagrams.net" agent="Mozilla/5.0 (Windows NT 10.0; Win64; x64) AppleWebKit/537.36 (KHTML, like Gecko) Chrome/132.0.0.0 Safari/537.36" version="26.0.11">
  <diagram name="Página-1" id="JOJs0gV64MYOnQZOllsk">
    <mxGraphModel dx="2267" dy="2320" grid="1" gridSize="10" guides="1" tooltips="1" connect="1" arrows="1" fold="1" page="1" pageScale="1" pageWidth="1654" pageHeight="1169" math="0" shadow="0">
      <root>
        <object label="" id="0">
          <mxCell />
        </object>
        <mxCell id="1" parent="0" />
        <mxCell id="C2GfppKZNMFUQmOp4A26-1" value="Barco" style="rounded=0;whiteSpace=wrap;html=1;" parent="1" vertex="1">
          <mxGeometry x="693" y="-1070" width="80" height="40" as="geometry" />
        </mxCell>
        <mxCell id="C2GfppKZNMFUQmOp4A26-3" value="Matrícula" style="ellipse;whiteSpace=wrap;html=1;align=center;fontStyle=4;" parent="1" vertex="1">
          <mxGeometry x="673" y="-1150" width="100" height="40" as="geometry" />
        </mxCell>
        <mxCell id="C2GfppKZNMFUQmOp4A26-4" value="bandera" style="ellipse;whiteSpace=wrap;html=1;align=center;" parent="1" vertex="1">
          <mxGeometry x="800" y="-1150" width="100" height="40" as="geometry" />
        </mxCell>
        <mxCell id="C2GfppKZNMFUQmOp4A26-5" value="nombre" style="ellipse;whiteSpace=wrap;html=1;align=center;" parent="1" vertex="1">
          <mxGeometry x="880" y="-1090" width="100" height="40" as="geometry" />
        </mxCell>
        <mxCell id="C2GfppKZNMFUQmOp4A26-6" value="tonelaje" style="ellipse;whiteSpace=wrap;html=1;align=center;" parent="1" vertex="1">
          <mxGeometry x="550" y="-1150" width="100" height="40" as="geometry" />
        </mxCell>
        <mxCell id="C2GfppKZNMFUQmOp4A26-7" value="calado" style="ellipse;whiteSpace=wrap;html=1;align=center;" parent="1" vertex="1">
          <mxGeometry x="470" y="-1040" width="100" height="40" as="geometry" />
        </mxCell>
        <mxCell id="C2GfppKZNMFUQmOp4A26-8" value="fecha de botadura" style="ellipse;whiteSpace=wrap;html=1;align=center;" parent="1" vertex="1">
          <mxGeometry x="470" y="-1100" width="120" height="40" as="geometry" />
        </mxCell>
        <mxCell id="C2GfppKZNMFUQmOp4A26-13" value="" style="endArrow=none;html=1;rounded=0;exitX=1;exitY=1;exitDx=0;exitDy=0;entryX=0;entryY=0.75;entryDx=0;entryDy=0;" parent="1" source="C2GfppKZNMFUQmOp4A26-8" target="C2GfppKZNMFUQmOp4A26-1" edge="1">
          <mxGeometry width="50" height="50" relative="1" as="geometry">
            <mxPoint x="650" y="-800" as="sourcePoint" />
            <mxPoint x="700" y="-850" as="targetPoint" />
          </mxGeometry>
        </mxCell>
        <mxCell id="C2GfppKZNMFUQmOp4A26-14" value="" style="endArrow=none;html=1;rounded=0;exitX=1;exitY=1;exitDx=0;exitDy=0;entryX=0;entryY=0.5;entryDx=0;entryDy=0;" parent="1" source="C2GfppKZNMFUQmOp4A26-6" target="C2GfppKZNMFUQmOp4A26-1" edge="1">
          <mxGeometry width="50" height="50" relative="1" as="geometry">
            <mxPoint x="680" y="-820" as="sourcePoint" />
            <mxPoint x="730" y="-870" as="targetPoint" />
          </mxGeometry>
        </mxCell>
        <mxCell id="C2GfppKZNMFUQmOp4A26-15" value="" style="endArrow=none;html=1;rounded=0;entryX=0.5;entryY=1;entryDx=0;entryDy=0;exitX=0.5;exitY=0;exitDx=0;exitDy=0;" parent="1" source="C2GfppKZNMFUQmOp4A26-1" target="C2GfppKZNMFUQmOp4A26-3" edge="1">
          <mxGeometry width="50" height="50" relative="1" as="geometry">
            <mxPoint x="680" y="-820" as="sourcePoint" />
            <mxPoint x="730" y="-870" as="targetPoint" />
          </mxGeometry>
        </mxCell>
        <mxCell id="C2GfppKZNMFUQmOp4A26-16" value="" style="endArrow=none;html=1;rounded=0;entryX=0;entryY=1;entryDx=0;entryDy=0;exitX=1;exitY=0;exitDx=0;exitDy=0;" parent="1" source="C2GfppKZNMFUQmOp4A26-1" target="C2GfppKZNMFUQmOp4A26-4" edge="1">
          <mxGeometry width="50" height="50" relative="1" as="geometry">
            <mxPoint x="680" y="-820" as="sourcePoint" />
            <mxPoint x="730" y="-870" as="targetPoint" />
          </mxGeometry>
        </mxCell>
        <mxCell id="C2GfppKZNMFUQmOp4A26-17" value="" style="endArrow=none;html=1;rounded=0;entryX=0;entryY=0.5;entryDx=0;entryDy=0;exitX=1;exitY=0.5;exitDx=0;exitDy=0;" parent="1" source="C2GfppKZNMFUQmOp4A26-1" target="C2GfppKZNMFUQmOp4A26-5" edge="1">
          <mxGeometry width="50" height="50" relative="1" as="geometry">
            <mxPoint x="680" y="-820" as="sourcePoint" />
            <mxPoint x="730" y="-870" as="targetPoint" />
          </mxGeometry>
        </mxCell>
        <mxCell id="C2GfppKZNMFUQmOp4A26-27" value="es" style="strokeWidth=2;html=1;shape=mxgraph.flowchart.merge_or_storage;whiteSpace=wrap;" parent="1" vertex="1">
          <mxGeometry x="685.5" y="-970" width="95" height="60" as="geometry" />
        </mxCell>
        <mxCell id="C2GfppKZNMFUQmOp4A26-29" value="Barcos de pasajeros" style="whiteSpace=wrap;html=1;align=center;" parent="1" vertex="1">
          <mxGeometry x="520" y="-860" width="100" height="40" as="geometry" />
        </mxCell>
        <mxCell id="C2GfppKZNMFUQmOp4A26-30" value="Barco de pesca" style="whiteSpace=wrap;html=1;align=center;" parent="1" vertex="1">
          <mxGeometry x="683" y="-860" width="100" height="40" as="geometry" />
        </mxCell>
        <mxCell id="C2GfppKZNMFUQmOp4A26-31" value="Barco de carga" style="whiteSpace=wrap;html=1;align=center;" parent="1" vertex="1">
          <mxGeometry x="850" y="-860" width="100" height="40" as="geometry" />
        </mxCell>
        <mxCell id="C2GfppKZNMFUQmOp4A26-35" value="cantidad de pasajeros" style="ellipse;whiteSpace=wrap;html=1;align=center;" parent="1" vertex="1">
          <mxGeometry x="410" y="-930" width="100" height="40" as="geometry" />
        </mxCell>
        <mxCell id="C2GfppKZNMFUQmOp4A26-39" value="" style="endArrow=none;html=1;rounded=0;entryX=1;entryY=1;entryDx=0;entryDy=0;exitX=0;exitY=0;exitDx=0;exitDy=0;" parent="1" source="C2GfppKZNMFUQmOp4A26-29" target="C2GfppKZNMFUQmOp4A26-35" edge="1">
          <mxGeometry width="50" height="50" relative="1" as="geometry">
            <mxPoint x="770" y="-740" as="sourcePoint" />
            <mxPoint x="820" y="-790" as="targetPoint" />
          </mxGeometry>
        </mxCell>
        <mxCell id="C2GfppKZNMFUQmOp4A26-40" value="tipo" style="ellipse;whiteSpace=wrap;html=1;align=center;" parent="1" vertex="1">
          <mxGeometry x="600" y="-770" width="100" height="40" as="geometry" />
        </mxCell>
        <mxCell id="C2GfppKZNMFUQmOp4A26-41" value="" style="endArrow=none;html=1;rounded=0;entryX=0;entryY=1;entryDx=0;entryDy=0;exitX=0.5;exitY=0;exitDx=0;exitDy=0;" parent="1" source="C2GfppKZNMFUQmOp4A26-40" target="C2GfppKZNMFUQmOp4A26-30" edge="1">
          <mxGeometry width="50" height="50" relative="1" as="geometry">
            <mxPoint x="770" y="-740" as="sourcePoint" />
            <mxPoint x="820" y="-790" as="targetPoint" />
          </mxGeometry>
        </mxCell>
        <mxCell id="C2GfppKZNMFUQmOp4A26-42" value="capacidad de carga" style="ellipse;whiteSpace=wrap;html=1;align=center;" parent="1" vertex="1">
          <mxGeometry x="960" y="-930" width="100" height="40" as="geometry" />
        </mxCell>
        <mxCell id="C2GfppKZNMFUQmOp4A26-43" value="" style="endArrow=none;html=1;rounded=0;entryX=1;entryY=0.25;entryDx=0;entryDy=0;exitX=0;exitY=1;exitDx=0;exitDy=0;" parent="1" source="C2GfppKZNMFUQmOp4A26-42" target="C2GfppKZNMFUQmOp4A26-31" edge="1">
          <mxGeometry width="50" height="50" relative="1" as="geometry">
            <mxPoint x="770" y="-740" as="sourcePoint" />
            <mxPoint x="820" y="-790" as="targetPoint" />
          </mxGeometry>
        </mxCell>
        <mxCell id="C2GfppKZNMFUQmOp4A26-44" value="" style="endArrow=none;html=1;rounded=0;entryX=1;entryY=0.5;entryDx=0;entryDy=0;exitX=0;exitY=1;exitDx=0;exitDy=0;" parent="1" source="C2GfppKZNMFUQmOp4A26-1" target="C2GfppKZNMFUQmOp4A26-7" edge="1">
          <mxGeometry width="50" height="50" relative="1" as="geometry">
            <mxPoint x="650" y="-690" as="sourcePoint" />
            <mxPoint x="700" y="-740" as="targetPoint" />
          </mxGeometry>
        </mxCell>
        <mxCell id="C2GfppKZNMFUQmOp4A26-45" value="Zona" style="whiteSpace=wrap;html=1;align=center;" parent="1" vertex="1">
          <mxGeometry x="330" y="-460" width="100" height="40" as="geometry" />
        </mxCell>
        <mxCell id="C2GfppKZNMFUQmOp4A26-49" value="código" style="ellipse;whiteSpace=wrap;html=1;align=center;fontStyle=4;" parent="1" vertex="1">
          <mxGeometry x="150" y="-360" width="100" height="40" as="geometry" />
        </mxCell>
        <mxCell id="C2GfppKZNMFUQmOp4A26-50" value="Especies permitidas" style="ellipse;shape=doubleEllipse;margin=3;whiteSpace=wrap;html=1;align=center;" parent="1" vertex="1">
          <mxGeometry x="370" y="-330" width="100" height="40" as="geometry" />
        </mxCell>
        <mxCell id="C2GfppKZNMFUQmOp4A26-51" value="" style="endArrow=none;html=1;rounded=0;exitX=0.5;exitY=0;exitDx=0;exitDy=0;entryX=0;entryY=1;entryDx=0;entryDy=0;" parent="1" source="C2GfppKZNMFUQmOp4A26-49" target="C2GfppKZNMFUQmOp4A26-45" edge="1">
          <mxGeometry width="50" height="50" relative="1" as="geometry">
            <mxPoint x="410" y="-530" as="sourcePoint" />
            <mxPoint x="430" y="-380" as="targetPoint" />
          </mxGeometry>
        </mxCell>
        <mxCell id="C2GfppKZNMFUQmOp4A26-52" value="" style="endArrow=none;html=1;rounded=0;entryX=0.5;entryY=1;entryDx=0;entryDy=0;exitX=0.5;exitY=0;exitDx=0;exitDy=0;" parent="1" source="C2GfppKZNMFUQmOp4A26-136" target="C2GfppKZNMFUQmOp4A26-45" edge="1">
          <mxGeometry width="50" height="50" relative="1" as="geometry">
            <mxPoint x="310" y="-340" as="sourcePoint" />
            <mxPoint x="460" y="-580" as="targetPoint" />
          </mxGeometry>
        </mxCell>
        <mxCell id="C2GfppKZNMFUQmOp4A26-53" value="" style="endArrow=none;html=1;rounded=0;entryX=0.75;entryY=1;entryDx=0;entryDy=0;exitX=0.5;exitY=0;exitDx=0;exitDy=0;" parent="1" source="C2GfppKZNMFUQmOp4A26-50" target="C2GfppKZNMFUQmOp4A26-45" edge="1">
          <mxGeometry width="50" height="50" relative="1" as="geometry">
            <mxPoint x="410" y="-530" as="sourcePoint" />
            <mxPoint x="460" y="-580" as="targetPoint" />
          </mxGeometry>
        </mxCell>
        <mxCell id="C2GfppKZNMFUQmOp4A26-54" value="Puerto" style="whiteSpace=wrap;html=1;align=center;" parent="1" vertex="1">
          <mxGeometry x="850" y="-450" width="100" height="40" as="geometry" />
        </mxCell>
        <mxCell id="C2GfppKZNMFUQmOp4A26-55" value="nombre" style="ellipse;whiteSpace=wrap;html=1;align=center;fontStyle=4;" parent="1" vertex="1">
          <mxGeometry x="685.5" y="-385" width="100" height="40" as="geometry" />
        </mxCell>
        <mxCell id="C2GfppKZNMFUQmOp4A26-56" value="país" style="ellipse;whiteSpace=wrap;html=1;align=center;" parent="1" vertex="1">
          <mxGeometry x="720" y="-330" width="100" height="40" as="geometry" />
        </mxCell>
        <mxCell id="C2GfppKZNMFUQmOp4A26-57" value="profundidad" style="ellipse;whiteSpace=wrap;html=1;align=center;" parent="1" vertex="1">
          <mxGeometry x="800" y="-290" width="100" height="40" as="geometry" />
        </mxCell>
        <mxCell id="C2GfppKZNMFUQmOp4A26-61" value="capacidad barco" style="ellipse;whiteSpace=wrap;html=1;align=center;" parent="1" vertex="1">
          <mxGeometry x="940" y="-350" width="100" height="40" as="geometry" />
        </mxCell>
        <mxCell id="C2GfppKZNMFUQmOp4A26-62" value="tipo de agua" style="ellipse;whiteSpace=wrap;html=1;align=center;" parent="1" vertex="1">
          <mxGeometry x="1100" y="-350" width="100" height="40" as="geometry" />
        </mxCell>
        <mxCell id="C2GfppKZNMFUQmOp4A26-63" value="" style="endArrow=none;html=1;rounded=0;entryX=0;entryY=0.75;entryDx=0;entryDy=0;exitX=0.5;exitY=0;exitDx=0;exitDy=0;" parent="1" source="C2GfppKZNMFUQmOp4A26-55" target="C2GfppKZNMFUQmOp4A26-54" edge="1">
          <mxGeometry width="50" height="50" relative="1" as="geometry">
            <mxPoint x="700" y="-319" as="sourcePoint" />
            <mxPoint x="720" y="-535" as="targetPoint" />
          </mxGeometry>
        </mxCell>
        <mxCell id="C2GfppKZNMFUQmOp4A26-64" value="" style="endArrow=none;html=1;rounded=0;entryX=0.25;entryY=1;entryDx=0;entryDy=0;exitX=0.5;exitY=0;exitDx=0;exitDy=0;" parent="1" source="C2GfppKZNMFUQmOp4A26-56" target="C2GfppKZNMFUQmOp4A26-54" edge="1">
          <mxGeometry width="50" height="50" relative="1" as="geometry">
            <mxPoint x="670" y="-485" as="sourcePoint" />
            <mxPoint x="720" y="-535" as="targetPoint" />
          </mxGeometry>
        </mxCell>
        <mxCell id="C2GfppKZNMFUQmOp4A26-65" value="" style="endArrow=none;html=1;rounded=0;entryX=0.5;entryY=1;entryDx=0;entryDy=0;exitX=0.5;exitY=0;exitDx=0;exitDy=0;" parent="1" source="C2GfppKZNMFUQmOp4A26-57" target="C2GfppKZNMFUQmOp4A26-54" edge="1">
          <mxGeometry width="50" height="50" relative="1" as="geometry">
            <mxPoint x="670" y="-485" as="sourcePoint" />
            <mxPoint x="720" y="-535" as="targetPoint" />
          </mxGeometry>
        </mxCell>
        <mxCell id="C2GfppKZNMFUQmOp4A26-66" value="" style="endArrow=none;html=1;rounded=0;entryX=0.75;entryY=1;entryDx=0;entryDy=0;exitX=0;exitY=0;exitDx=0;exitDy=0;" parent="1" source="C2GfppKZNMFUQmOp4A26-142" target="C2GfppKZNMFUQmOp4A26-54" edge="1">
          <mxGeometry width="50" height="50" relative="1" as="geometry">
            <mxPoint x="918" y="-275.55999999999995" as="sourcePoint" />
            <mxPoint x="720" y="-535" as="targetPoint" />
          </mxGeometry>
        </mxCell>
        <mxCell id="C2GfppKZNMFUQmOp4A26-67" value="" style="endArrow=none;html=1;rounded=0;entryX=1;entryY=0.75;entryDx=0;entryDy=0;exitX=0;exitY=0;exitDx=0;exitDy=0;" parent="1" source="C2GfppKZNMFUQmOp4A26-61" target="C2GfppKZNMFUQmOp4A26-54" edge="1">
          <mxGeometry width="50" height="50" relative="1" as="geometry">
            <mxPoint x="670" y="-485" as="sourcePoint" />
            <mxPoint x="720" y="-535" as="targetPoint" />
          </mxGeometry>
        </mxCell>
        <mxCell id="C2GfppKZNMFUQmOp4A26-68" value="" style="endArrow=none;html=1;rounded=0;entryX=1;entryY=0.5;entryDx=0;entryDy=0;exitX=0;exitY=0;exitDx=0;exitDy=0;" parent="1" source="C2GfppKZNMFUQmOp4A26-62" target="C2GfppKZNMFUQmOp4A26-54" edge="1">
          <mxGeometry width="50" height="50" relative="1" as="geometry">
            <mxPoint x="990" y="-429" as="sourcePoint" />
            <mxPoint x="720" y="-535" as="targetPoint" />
          </mxGeometry>
        </mxCell>
        <mxCell id="C2GfppKZNMFUQmOp4A26-71" value="" style="endArrow=none;html=1;rounded=0;entryX=0.5;entryY=1;entryDx=0;entryDy=0;exitX=0.5;exitY=0;exitDx=0;exitDy=0;exitPerimeter=0;" parent="1" source="C2GfppKZNMFUQmOp4A26-27" target="C2GfppKZNMFUQmOp4A26-1" edge="1">
          <mxGeometry relative="1" as="geometry">
            <mxPoint x="660" y="-650" as="sourcePoint" />
            <mxPoint x="820" y="-650" as="targetPoint" />
          </mxGeometry>
        </mxCell>
        <mxCell id="C2GfppKZNMFUQmOp4A26-72" value="1" style="resizable=0;html=1;whiteSpace=wrap;align=right;verticalAlign=bottom;" parent="C2GfppKZNMFUQmOp4A26-71" connectable="0" vertex="1">
          <mxGeometry x="1" relative="1" as="geometry">
            <mxPoint y="20" as="offset" />
          </mxGeometry>
        </mxCell>
        <mxCell id="C2GfppKZNMFUQmOp4A26-74" value="" style="endArrow=none;html=1;rounded=0;entryX=0.5;entryY=0;entryDx=0;entryDy=0;exitX=0.177;exitY=0.459;exitDx=0;exitDy=0;exitPerimeter=0;" parent="1" source="C2GfppKZNMFUQmOp4A26-27" target="C2GfppKZNMFUQmOp4A26-29" edge="1">
          <mxGeometry relative="1" as="geometry">
            <mxPoint x="700" y="-940" as="sourcePoint" />
            <mxPoint x="743" y="-1020" as="targetPoint" />
          </mxGeometry>
        </mxCell>
        <mxCell id="C2GfppKZNMFUQmOp4A26-75" value="1" style="resizable=0;html=1;whiteSpace=wrap;align=right;verticalAlign=bottom;" parent="C2GfppKZNMFUQmOp4A26-74" connectable="0" vertex="1">
          <mxGeometry x="1" relative="1" as="geometry">
            <mxPoint x="10" y="-10" as="offset" />
          </mxGeometry>
        </mxCell>
        <mxCell id="C2GfppKZNMFUQmOp4A26-78" value="" style="endArrow=none;html=1;rounded=0;entryX=0.446;entryY=-0.057;entryDx=0;entryDy=0;exitX=0.882;exitY=0.331;exitDx=0;exitDy=0;exitPerimeter=0;entryPerimeter=0;" parent="1" source="C2GfppKZNMFUQmOp4A26-27" target="C2GfppKZNMFUQmOp4A26-31" edge="1">
          <mxGeometry relative="1" as="geometry">
            <mxPoint x="753" y="-950" as="sourcePoint" />
            <mxPoint x="753" y="-1010" as="targetPoint" />
          </mxGeometry>
        </mxCell>
        <mxCell id="C2GfppKZNMFUQmOp4A26-79" value="1" style="resizable=0;html=1;whiteSpace=wrap;align=right;verticalAlign=bottom;" parent="C2GfppKZNMFUQmOp4A26-78" connectable="0" vertex="1">
          <mxGeometry x="1" relative="1" as="geometry">
            <mxPoint x="-4" y="-8" as="offset" />
          </mxGeometry>
        </mxCell>
        <mxCell id="C2GfppKZNMFUQmOp4A26-80" value="" style="endArrow=none;html=1;rounded=0;entryX=0.5;entryY=0;entryDx=0;entryDy=0;exitX=0.5;exitY=1;exitDx=0;exitDy=0;exitPerimeter=0;" parent="1" source="C2GfppKZNMFUQmOp4A26-27" target="C2GfppKZNMFUQmOp4A26-30" edge="1">
          <mxGeometry relative="1" as="geometry">
            <mxPoint x="763" y="-940" as="sourcePoint" />
            <mxPoint x="763" y="-1000" as="targetPoint" />
          </mxGeometry>
        </mxCell>
        <mxCell id="C2GfppKZNMFUQmOp4A26-81" value="1" style="resizable=0;html=1;whiteSpace=wrap;align=right;verticalAlign=bottom;" parent="C2GfppKZNMFUQmOp4A26-80" connectable="0" vertex="1">
          <mxGeometry x="1" relative="1" as="geometry">
            <mxPoint x="-3" as="offset" />
          </mxGeometry>
        </mxCell>
        <mxCell id="C2GfppKZNMFUQmOp4A26-82" value="trabaja" style="shape=rhombus;perimeter=rhombusPerimeter;whiteSpace=wrap;html=1;align=center;" parent="1" vertex="1">
          <mxGeometry x="433" y="-600" width="120" height="60" as="geometry" />
        </mxCell>
        <mxCell id="C2GfppKZNMFUQmOp4A26-83" value="" style="endArrow=none;html=1;rounded=0;entryX=0.5;entryY=1;entryDx=0;entryDy=0;exitX=0.5;exitY=0;exitDx=0;exitDy=0;" parent="1" source="C2GfppKZNMFUQmOp4A26-82" target="C2GfppKZNMFUQmOp4A26-30" edge="1">
          <mxGeometry relative="1" as="geometry">
            <mxPoint x="280" y="-520" as="sourcePoint" />
            <mxPoint x="440" y="-520" as="targetPoint" />
            <Array as="points">
              <mxPoint x="733" y="-600" />
            </Array>
          </mxGeometry>
        </mxCell>
        <mxCell id="C2GfppKZNMFUQmOp4A26-84" value="M" style="resizable=0;html=1;whiteSpace=wrap;align=right;verticalAlign=bottom;" parent="C2GfppKZNMFUQmOp4A26-83" connectable="0" vertex="1">
          <mxGeometry x="1" relative="1" as="geometry">
            <mxPoint x="-3" y="20" as="offset" />
          </mxGeometry>
        </mxCell>
        <mxCell id="C2GfppKZNMFUQmOp4A26-85" value="" style="endArrow=none;html=1;rounded=0;exitX=0.5;exitY=1;exitDx=0;exitDy=0;entryX=1;entryY=0.5;entryDx=0;entryDy=0;" parent="1" source="C2GfppKZNMFUQmOp4A26-82" target="C2GfppKZNMFUQmOp4A26-45" edge="1">
          <mxGeometry relative="1" as="geometry">
            <mxPoint x="360" y="-460" as="sourcePoint" />
            <mxPoint x="380" y="-490" as="targetPoint" />
            <Array as="points">
              <mxPoint x="493" y="-440" />
            </Array>
          </mxGeometry>
        </mxCell>
        <mxCell id="C2GfppKZNMFUQmOp4A26-86" value="N" style="resizable=0;html=1;whiteSpace=wrap;align=right;verticalAlign=bottom;" parent="C2GfppKZNMFUQmOp4A26-85" connectable="0" vertex="1">
          <mxGeometry x="1" relative="1" as="geometry">
            <mxPoint x="13" as="offset" />
          </mxGeometry>
        </mxCell>
        <mxCell id="C2GfppKZNMFUQmOp4A26-89" value="su limite es" style="shape=rhombus;perimeter=rhombusPerimeter;whiteSpace=wrap;html=1;align=center;" parent="1" vertex="1">
          <mxGeometry x="150" y="-470" width="120" height="60" as="geometry" />
        </mxCell>
        <mxCell id="C2GfppKZNMFUQmOp4A26-90" value="" style="endArrow=none;html=1;rounded=0;entryX=0;entryY=0.5;entryDx=0;entryDy=0;exitX=1;exitY=0.5;exitDx=0;exitDy=0;" parent="1" source="C2GfppKZNMFUQmOp4A26-89" target="C2GfppKZNMFUQmOp4A26-45" edge="1">
          <mxGeometry relative="1" as="geometry">
            <mxPoint x="300" y="-450" as="sourcePoint" />
            <mxPoint x="460" y="-450" as="targetPoint" />
          </mxGeometry>
        </mxCell>
        <mxCell id="C2GfppKZNMFUQmOp4A26-91" value="M" style="resizable=0;html=1;whiteSpace=wrap;align=right;verticalAlign=bottom;" parent="C2GfppKZNMFUQmOp4A26-90" connectable="0" vertex="1">
          <mxGeometry x="1" relative="1" as="geometry" />
        </mxCell>
        <mxCell id="C2GfppKZNMFUQmOp4A26-92" value="" style="endArrow=none;html=1;rounded=0;exitX=0.5;exitY=0;exitDx=0;exitDy=0;entryX=0.5;entryY=0;entryDx=0;entryDy=0;" parent="1" source="C2GfppKZNMFUQmOp4A26-89" target="C2GfppKZNMFUQmOp4A26-45" edge="1">
          <mxGeometry relative="1" as="geometry">
            <mxPoint x="300" y="-450" as="sourcePoint" />
            <mxPoint x="220" y="-560" as="targetPoint" />
            <Array as="points">
              <mxPoint x="210" y="-530" />
              <mxPoint x="380" y="-530" />
            </Array>
          </mxGeometry>
        </mxCell>
        <mxCell id="C2GfppKZNMFUQmOp4A26-93" value="N" style="resizable=0;html=1;whiteSpace=wrap;align=right;verticalAlign=bottom;" parent="C2GfppKZNMFUQmOp4A26-92" connectable="0" vertex="1">
          <mxGeometry x="1" relative="1" as="geometry" />
        </mxCell>
        <mxCell id="C2GfppKZNMFUQmOp4A26-94" value="atraca" style="shape=rhombus;perimeter=rhombusPerimeter;whiteSpace=wrap;html=1;align=center;" parent="1" vertex="1">
          <mxGeometry x="840" y="-740" width="120" height="60" as="geometry" />
        </mxCell>
        <mxCell id="C2GfppKZNMFUQmOp4A26-95" value="" style="endArrow=none;html=1;rounded=0;entryX=0.5;entryY=1;entryDx=0;entryDy=0;exitX=0.5;exitY=0;exitDx=0;exitDy=0;" parent="1" source="C2GfppKZNMFUQmOp4A26-94" target="C2GfppKZNMFUQmOp4A26-31" edge="1">
          <mxGeometry relative="1" as="geometry">
            <mxPoint x="440" y="-710" as="sourcePoint" />
            <mxPoint x="600" y="-710" as="targetPoint" />
          </mxGeometry>
        </mxCell>
        <mxCell id="C2GfppKZNMFUQmOp4A26-96" value="N" style="resizable=0;html=1;whiteSpace=wrap;align=right;verticalAlign=bottom;" parent="C2GfppKZNMFUQmOp4A26-95" connectable="0" vertex="1">
          <mxGeometry x="1" relative="1" as="geometry">
            <mxPoint y="20" as="offset" />
          </mxGeometry>
        </mxCell>
        <mxCell id="C2GfppKZNMFUQmOp4A26-100" value="fecha" style="ellipse;whiteSpace=wrap;html=1;align=center;" parent="1" vertex="1">
          <mxGeometry x="290" y="-660" width="100" height="40" as="geometry" />
        </mxCell>
        <mxCell id="C2GfppKZNMFUQmOp4A26-102" value="" style="endArrow=none;html=1;rounded=0;exitX=1;exitY=0.5;exitDx=0;exitDy=0;entryX=0;entryY=0;entryDx=0;entryDy=0;" parent="1" source="C2GfppKZNMFUQmOp4A26-100" target="C2GfppKZNMFUQmOp4A26-82" edge="1">
          <mxGeometry width="50" height="50" relative="1" as="geometry">
            <mxPoint x="440" y="-580" as="sourcePoint" />
            <mxPoint x="490" y="-630" as="targetPoint" />
          </mxGeometry>
        </mxCell>
        <mxCell id="C2GfppKZNMFUQmOp4A26-104" value="fecha" style="ellipse;whiteSpace=wrap;html=1;align=center;" parent="1" vertex="1">
          <mxGeometry x="970" y="-810" width="100" height="40" as="geometry" />
        </mxCell>
        <mxCell id="C2GfppKZNMFUQmOp4A26-105" value="" style="endArrow=none;html=1;rounded=0;exitX=1;exitY=0;exitDx=0;exitDy=0;entryX=0;entryY=1;entryDx=0;entryDy=0;" parent="1" source="C2GfppKZNMFUQmOp4A26-94" target="C2GfppKZNMFUQmOp4A26-104" edge="1">
          <mxGeometry width="50" height="50" relative="1" as="geometry">
            <mxPoint x="270" y="-670" as="sourcePoint" />
            <mxPoint x="333" y="-670" as="targetPoint" />
          </mxGeometry>
        </mxCell>
        <mxCell id="C2GfppKZNMFUQmOp4A26-106" value="Mercadería" style="whiteSpace=wrap;html=1;align=center;" parent="1" vertex="1">
          <mxGeometry x="1120" y="-730" width="100" height="40" as="geometry" />
        </mxCell>
        <mxCell id="C2GfppKZNMFUQmOp4A26-108" value="código" style="ellipse;whiteSpace=wrap;html=1;align=center;fontStyle=4;" parent="1" vertex="1">
          <mxGeometry x="1280" y="-825" width="100" height="40" as="geometry" />
        </mxCell>
        <mxCell id="C2GfppKZNMFUQmOp4A26-109" value="unidad" style="ellipse;whiteSpace=wrap;html=1;align=center;" parent="1" vertex="1">
          <mxGeometry x="1320" y="-735" width="100" height="40" as="geometry" />
        </mxCell>
        <mxCell id="C2GfppKZNMFUQmOp4A26-110" value="peso en metro cubico" style="ellipse;whiteSpace=wrap;html=1;align=center;" parent="1" vertex="1">
          <mxGeometry x="1300" y="-635" width="100" height="40" as="geometry" />
        </mxCell>
        <mxCell id="C2GfppKZNMFUQmOp4A26-112" value="" style="endArrow=none;html=1;rounded=0;entryX=0;entryY=0.5;entryDx=0;entryDy=0;exitX=0.75;exitY=0;exitDx=0;exitDy=0;" parent="1" source="C2GfppKZNMFUQmOp4A26-106" target="C2GfppKZNMFUQmOp4A26-108" edge="1">
          <mxGeometry width="50" height="50" relative="1" as="geometry">
            <mxPoint x="1170" y="-815" as="sourcePoint" />
            <mxPoint x="1190" y="-735" as="targetPoint" />
          </mxGeometry>
        </mxCell>
        <mxCell id="C2GfppKZNMFUQmOp4A26-113" value="" style="endArrow=none;html=1;rounded=0;entryX=0.75;entryY=1;entryDx=0;entryDy=0;" parent="1" source="C2GfppKZNMFUQmOp4A26-110" target="C2GfppKZNMFUQmOp4A26-106" edge="1">
          <mxGeometry width="50" height="50" relative="1" as="geometry">
            <mxPoint x="1140" y="-685" as="sourcePoint" />
            <mxPoint x="1070" y="-685" as="targetPoint" />
          </mxGeometry>
        </mxCell>
        <mxCell id="C2GfppKZNMFUQmOp4A26-114" value="" style="endArrow=none;html=1;rounded=0;exitX=0;exitY=0.5;exitDx=0;exitDy=0;entryX=1;entryY=0.25;entryDx=0;entryDy=0;" parent="1" source="C2GfppKZNMFUQmOp4A26-109" target="C2GfppKZNMFUQmOp4A26-106" edge="1">
          <mxGeometry width="50" height="50" relative="1" as="geometry">
            <mxPoint x="1140" y="-685" as="sourcePoint" />
            <mxPoint x="1190" y="-735" as="targetPoint" />
          </mxGeometry>
        </mxCell>
        <mxCell id="C2GfppKZNMFUQmOp4A26-115" value="" style="endArrow=none;html=1;rounded=0;exitX=0.5;exitY=1;exitDx=0;exitDy=0;" parent="1" source="C2GfppKZNMFUQmOp4A26-94" target="C2GfppKZNMFUQmOp4A26-54" edge="1">
          <mxGeometry relative="1" as="geometry">
            <mxPoint x="910" y="-730" as="sourcePoint" />
            <mxPoint x="910" y="-810" as="targetPoint" />
          </mxGeometry>
        </mxCell>
        <mxCell id="C2GfppKZNMFUQmOp4A26-116" value="M" style="resizable=0;html=1;whiteSpace=wrap;align=right;verticalAlign=bottom;" parent="C2GfppKZNMFUQmOp4A26-115" connectable="0" vertex="1">
          <mxGeometry x="1" relative="1" as="geometry">
            <mxPoint as="offset" />
          </mxGeometry>
        </mxCell>
        <mxCell id="C2GfppKZNMFUQmOp4A26-118" value="pertenece" style="shape=rhombus;perimeter=rhombusPerimeter;whiteSpace=wrap;html=1;align=center;" parent="1" vertex="1">
          <mxGeometry x="600" y="-460" width="120" height="60" as="geometry" />
        </mxCell>
        <mxCell id="C2GfppKZNMFUQmOp4A26-123" value="" style="endArrow=none;html=1;rounded=0;entryX=0;entryY=0.5;entryDx=0;entryDy=0;exitX=1;exitY=0.5;exitDx=0;exitDy=0;" parent="1" source="C2GfppKZNMFUQmOp4A26-118" target="C2GfppKZNMFUQmOp4A26-54" edge="1">
          <mxGeometry relative="1" as="geometry">
            <mxPoint x="630" y="-690" as="sourcePoint" />
            <mxPoint x="790" y="-690" as="targetPoint" />
          </mxGeometry>
        </mxCell>
        <mxCell id="C2GfppKZNMFUQmOp4A26-124" value="M" style="resizable=0;html=1;whiteSpace=wrap;align=right;verticalAlign=bottom;" parent="C2GfppKZNMFUQmOp4A26-123" connectable="0" vertex="1">
          <mxGeometry x="1" relative="1" as="geometry">
            <mxPoint x="-10" as="offset" />
          </mxGeometry>
        </mxCell>
        <mxCell id="C2GfppKZNMFUQmOp4A26-125" value="" style="endArrow=none;html=1;rounded=0;entryX=1;entryY=0.75;entryDx=0;entryDy=0;exitX=0;exitY=0.5;exitDx=0;exitDy=0;" parent="1" source="C2GfppKZNMFUQmOp4A26-118" target="C2GfppKZNMFUQmOp4A26-45" edge="1">
          <mxGeometry relative="1" as="geometry">
            <mxPoint x="630" y="-690" as="sourcePoint" />
            <mxPoint x="790" y="-690" as="targetPoint" />
          </mxGeometry>
        </mxCell>
        <mxCell id="C2GfppKZNMFUQmOp4A26-126" value="N" style="resizable=0;html=1;whiteSpace=wrap;align=right;verticalAlign=bottom;" parent="C2GfppKZNMFUQmOp4A26-125" connectable="0" vertex="1">
          <mxGeometry x="1" relative="1" as="geometry">
            <mxPoint x="20" y="20" as="offset" />
          </mxGeometry>
        </mxCell>
        <mxCell id="C2GfppKZNMFUQmOp4A26-128" value="operación" style="ellipse;whiteSpace=wrap;html=1;align=center;" parent="1" vertex="1">
          <mxGeometry x="980" y="-660" width="100" height="40" as="geometry" />
        </mxCell>
        <mxCell id="C2GfppKZNMFUQmOp4A26-129" value="" style="endArrow=none;html=1;rounded=0;exitX=1;exitY=1;exitDx=0;exitDy=0;entryX=0;entryY=0;entryDx=0;entryDy=0;" parent="1" source="C2GfppKZNMFUQmOp4A26-94" target="C2GfppKZNMFUQmOp4A26-128" edge="1">
          <mxGeometry width="50" height="50" relative="1" as="geometry">
            <mxPoint x="1120" y="-680" as="sourcePoint" />
            <mxPoint x="1170" y="-730" as="targetPoint" />
          </mxGeometry>
        </mxCell>
        <mxCell id="C2GfppKZNMFUQmOp4A26-130" value="distancia a" style="shape=rhombus;perimeter=rhombusPerimeter;whiteSpace=wrap;html=1;align=center;" parent="1" vertex="1">
          <mxGeometry x="1090" y="-470" width="120" height="60" as="geometry" />
        </mxCell>
        <mxCell id="C2GfppKZNMFUQmOp4A26-131" value="" style="endArrow=none;html=1;rounded=0;entryX=1;entryY=0.25;entryDx=0;entryDy=0;exitX=0;exitY=0.5;exitDx=0;exitDy=0;" parent="1" source="C2GfppKZNMFUQmOp4A26-130" target="C2GfppKZNMFUQmOp4A26-54" edge="1">
          <mxGeometry relative="1" as="geometry">
            <mxPoint x="810" y="-480" as="sourcePoint" />
            <mxPoint x="970" y="-480" as="targetPoint" />
          </mxGeometry>
        </mxCell>
        <mxCell id="C2GfppKZNMFUQmOp4A26-132" value="N" style="resizable=0;html=1;whiteSpace=wrap;align=right;verticalAlign=bottom;" parent="C2GfppKZNMFUQmOp4A26-131" connectable="0" vertex="1">
          <mxGeometry x="1" relative="1" as="geometry">
            <mxPoint x="20" as="offset" />
          </mxGeometry>
        </mxCell>
        <mxCell id="C2GfppKZNMFUQmOp4A26-133" value="" style="endArrow=none;html=1;rounded=0;entryX=0.75;entryY=0;entryDx=0;entryDy=0;exitX=0.5;exitY=0;exitDx=0;exitDy=0;" parent="1" source="C2GfppKZNMFUQmOp4A26-130" target="C2GfppKZNMFUQmOp4A26-54" edge="1">
          <mxGeometry relative="1" as="geometry">
            <mxPoint x="1140" y="-550.95" as="sourcePoint" />
            <mxPoint x="1000" y="-550.95" as="targetPoint" />
            <Array as="points">
              <mxPoint x="1150" y="-560" />
              <mxPoint x="925" y="-560" />
            </Array>
          </mxGeometry>
        </mxCell>
        <mxCell id="C2GfppKZNMFUQmOp4A26-134" value="M" style="resizable=0;html=1;whiteSpace=wrap;align=right;verticalAlign=bottom;" parent="C2GfppKZNMFUQmOp4A26-133" connectable="0" vertex="1">
          <mxGeometry x="1" relative="1" as="geometry">
            <mxPoint x="15" as="offset" />
          </mxGeometry>
        </mxCell>
        <mxCell id="C2GfppKZNMFUQmOp4A26-136" value="coordenadas" style="ellipse;whiteSpace=wrap;html=1;align=center;" parent="1" vertex="1">
          <mxGeometry x="260" y="-330" width="100" height="40" as="geometry" />
        </mxCell>
        <mxCell id="C2GfppKZNMFUQmOp4A26-137" value="latitud" style="ellipse;whiteSpace=wrap;html=1;align=center;" parent="1" vertex="1">
          <mxGeometry x="190" y="-250" width="100" height="40" as="geometry" />
        </mxCell>
        <mxCell id="C2GfppKZNMFUQmOp4A26-138" value="" style="endArrow=none;html=1;rounded=0;entryX=0;entryY=1;entryDx=0;entryDy=0;exitX=0.5;exitY=0;exitDx=0;exitDy=0;" parent="1" source="C2GfppKZNMFUQmOp4A26-137" target="C2GfppKZNMFUQmOp4A26-136" edge="1">
          <mxGeometry width="50" height="50" relative="1" as="geometry">
            <mxPoint x="520" y="-210" as="sourcePoint" />
            <mxPoint x="570" y="-260" as="targetPoint" />
          </mxGeometry>
        </mxCell>
        <mxCell id="C2GfppKZNMFUQmOp4A26-139" value="longitud" style="ellipse;whiteSpace=wrap;html=1;align=center;" parent="1" vertex="1">
          <mxGeometry x="310" y="-240" width="100" height="40" as="geometry" />
        </mxCell>
        <mxCell id="C2GfppKZNMFUQmOp4A26-141" value="" style="endArrow=none;html=1;rounded=0;entryX=0.5;entryY=1;entryDx=0;entryDy=0;exitX=0.223;exitY=0.129;exitDx=0;exitDy=0;exitPerimeter=0;" parent="1" source="C2GfppKZNMFUQmOp4A26-139" target="C2GfppKZNMFUQmOp4A26-136" edge="1">
          <mxGeometry width="50" height="50" relative="1" as="geometry">
            <mxPoint x="250" y="-240" as="sourcePoint" />
            <mxPoint x="285" y="-286" as="targetPoint" />
          </mxGeometry>
        </mxCell>
        <mxCell id="C2GfppKZNMFUQmOp4A26-142" value="tipo de grúas" style="ellipse;shape=doubleEllipse;margin=3;whiteSpace=wrap;html=1;align=center;" parent="1" vertex="1">
          <mxGeometry x="920" y="-260" width="100" height="40" as="geometry" />
        </mxCell>
        <mxCell id="C2GfppKZNMFUQmOp4A26-145" value="" style="endArrow=none;html=1;rounded=0;entryX=0;entryY=0.5;entryDx=0;entryDy=0;exitX=1;exitY=0.5;exitDx=0;exitDy=0;" parent="1" source="C2GfppKZNMFUQmOp4A26-94" target="C2GfppKZNMFUQmOp4A26-106" edge="1">
          <mxGeometry width="50" height="50" relative="1" as="geometry">
            <mxPoint x="1090" y="-470" as="sourcePoint" />
            <mxPoint x="1140" y="-520" as="targetPoint" />
          </mxGeometry>
        </mxCell>
        <mxCell id="C2GfppKZNMFUQmOp4A26-146" value="M" style="resizable=0;html=1;whiteSpace=wrap;align=right;verticalAlign=bottom;" parent="1" connectable="0" vertex="1">
          <mxGeometry x="1110" y="-695" as="geometry" />
        </mxCell>
      </root>
    </mxGraphModel>
  </diagram>
</mxfile>
